<svg width="62" height="63" viewBox="0 0 62 63" fill="none" xmlns="http://www.w3.org/2000/svg">
<rect width="62" height="61" fill="black"/>
<path d="M18.689 25.58V50H13.046V25.58H18.689ZM34.0314 50L28.4214 42.278V50H22.7784V25.58H28.4214V39.077L33.9984 31.586H40.9614L33.3054 40.826L41.0274 50H34.0314ZM45.8178 50.264C44.8278 50.264 44.0138 49.978 43.3758 49.406C42.7598 48.812 42.4518 48.086 42.4518 47.228C42.4518 46.348 42.7598 45.611 43.3758 45.017C44.0138 44.423 44.8278 44.126 45.8178 44.126C46.7858 44.126 47.5778 44.423 48.1938 45.017C48.8318 45.611 49.1508 46.348 49.1508 47.228C49.1508 48.086 48.8318 48.812 48.1938 49.406C47.5778 49.978 46.7858 50.264 45.8178 50.264Z" fill="#FCFCFC"/>
</svg>
